<svg width="49" height="95" viewBox="0 0 49 95" fill="none" xmlns="http://www.w3.org/2000/svg">
<path fill-rule="evenodd" clip-rule="evenodd" d="M13.2326 26.418C11.2371 30.4936 8.63621 35.452 7.52387 37.4023C5.29901 41.4847 5.48109 43.247 8.17004 42.7441C9.60886 42.5271 10.3393 41.9372 12.3358 39.7206C14.8508 36.7938 23.0389 21.096 22.955 19.2194C22.8922 17.3895 20.9453 16.8149 18.8685 17.9917C17.3407 18.8574 16.2998 20.468 13.2305 26.4133L13.2326 26.418Z" fill="#0056D2"/>
<path fill-rule="evenodd" clip-rule="evenodd" d="M19.513 51.2675C18.3042 52.98 18.7807 54.1134 20.6982 54.3231C21.9888 54.4391 23.2986 53.846 31.4474 49.3459C39.8276 44.7226 40.7695 44.1168 41.1714 42.9955C41.6604 41.4524 41.5782 41.2824 40.1254 40.8305C39.0826 40.4783 37.9201 40.9356 29.7092 45.1455C21.8424 49.1721 20.3269 50.0885 19.513 51.2675Z" fill="#0056D2"/>
<path fill-rule="evenodd" clip-rule="evenodd" d="M24.7307 71.3978C24.4792 72.0045 24.6641 72.8898 25.2233 73.4521C25.9467 74.2124 27.6475 74.1362 33.6528 73.1014C41.9995 71.7514 44.2448 70.7285 43.6522 68.6165C42.6028 65.0099 26.2892 67.3837 24.7365 71.3946L24.7307 71.3978Z" fill="#0056D2"/>
</svg>
