<svg width="18" height="20" viewBox="0 0 18 20" fill="none" xmlns="http://www.w3.org/2000/svg">
<g opacity="0.3">
<path d="M9.04625 8.11322C7.87269 7.21845 8.09306 2.65277 8.18655 1.18207C8.24664 0.128706 9.65223 -0.393802 10.3934 0.347391C10.6372 0.574423 10.8208 0.924985 10.8141 1.26386C10.8024 1.88319 10.7941 2.50252 10.734 3.12018C10.6321 3.87306 10.2231 8.70918 9.04625 8.11322Z" fill="#0056D2"/>
<path d="M0.01668 9.56553C-0.0918279 8.93786 0.340538 8.29683 0.979899 8.195C2.08501 8.05144 3.26192 8.04142 4.33364 8.38364C4.57236 8.46711 4.91623 8.67076 4.90288 8.9629C4.7927 9.17324 4.55064 9.34018 4.36034 9.46538C3.4472 9.98955 2.41224 10.3001 1.38892 10.5271C0.766255 10.6523 0.12519 10.1932 0.018351 9.56553H0.01668Z" fill="#0056D2"/>
<path d="M17.1025 10.7892C15.7286 10.7174 14.2062 10.6773 13.0126 9.92278C12.6303 9.61228 12.7455 9.28009 13.2229 9.20998C14.5184 8.96292 15.8422 8.86441 17.1593 8.9195C17.3579 8.92617 17.5633 9.03303 17.7052 9.16491C18.3162 9.69075 17.9105 10.7959 17.1025 10.7892Z" fill="#0056D2"/>
<path d="M6.87604 18.4632C6.89107 17.0876 7.25834 15.5602 7.43028 14.2364C7.5054 13.774 7.58384 13.3333 7.69735 12.8809C7.80753 12.5287 7.88266 12.113 8.16812 11.8576C8.90431 11.5254 9.26657 14.4417 9.35171 14.9442C9.43017 15.5368 9.50195 16.1311 9.56205 16.7254C9.5921 17.5935 9.951 18.6435 9.30496 19.3663C8.52203 20.2761 6.86436 19.6785 6.87437 18.4632H6.87604Z" fill="#0056D2"/>
</g>
</svg>
