<svg width="22" height="19" viewBox="0 0 22 19" fill="none" xmlns="http://www.w3.org/2000/svg">
<path opacity="0.3" d="M8.59826 18.0395C5.31319 17.4438 2.08596 15.2549 1.16682 11.9187C-0.504654 10.8907 -0.239051 8.96047 1.07157 7.73155C1.38476 6.32901 2.0588 5.02178 2.9473 3.9018C5.21452 0.936718 9.41188 -0.986655 13.0306 0.531628C15.022 1.05588 17.0237 1.68905 18.6646 3.00308C23.7471 6.75453 22.5794 12.1809 18.1301 15.8711C15.5122 18.0225 11.8902 18.7476 8.60167 18.0429L8.59826 18.0395ZM11.5464 12.426C13.497 12.3477 15.1173 10.8873 15.7233 9.08303C14.5624 7.6022 12.6186 6.90773 10.7974 6.7205C8.98974 6.58093 7.50215 7.87112 6.26642 9.03196C6.20855 11.6907 9.39483 12.5009 11.5497 12.426H11.5464Z" fill="#0056D2"/>
</svg>
