<svg width="14" height="14" viewBox="0 0 14 14" fill="none" xmlns="http://www.w3.org/2000/svg">
<path d="M12.8242 6.25517L10.3578 8.40767L11.0966 11.6124C11.1357 11.7799 11.1246 11.9552 11.0646 12.1165C11.0046 12.2777 10.8983 12.4176 10.7592 12.5188C10.6201 12.62 10.4542 12.678 10.2824 12.6854C10.1105 12.6928 9.94024 12.6494 9.79289 12.5606L6.99781 10.8653L4.20875 12.5606C4.06141 12.6494 3.89115 12.6928 3.71928 12.6854C3.54741 12.678 3.38154 12.62 3.24242 12.5188C3.10329 12.4176 2.99709 12.2777 2.93707 12.1165C2.87706 11.9552 2.8659 11.7799 2.905 11.6124L3.64273 8.41095L1.17578 6.25517C1.0453 6.14264 0.950951 5.99408 0.904562 5.82814C0.858172 5.6622 0.861809 5.48625 0.915016 5.32237C0.968223 5.15849 1.06863 5.01396 1.20365 4.90691C1.33867 4.79987 1.50229 4.73507 1.67398 4.72064L4.9257 4.439L6.195 1.4115C6.26128 1.25264 6.37309 1.11694 6.51634 1.0215C6.65958 0.926051 6.82787 0.875122 7 0.875122C7.17213 0.875122 7.34042 0.926051 7.48366 1.0215C7.62691 1.11694 7.73872 1.25264 7.805 1.4115L9.07812 4.439L12.3288 4.72064C12.5005 4.73507 12.6641 4.79987 12.7991 4.90691C12.9341 5.01396 13.0345 5.15849 13.0877 5.32237C13.1409 5.48625 13.1446 5.6622 13.0982 5.82814C13.0518 5.99408 12.9574 6.14264 12.827 6.25517H12.8242Z" fill="#FFCE20"/>
<path d="M13.0812 5.14551C13.0283 4.98221 12.9284 4.8381 12.7941 4.73113C12.6598 4.62416 12.497 4.55907 12.326 4.54395L9.07812 4.26395L7.805 1.23645C7.73872 1.07759 7.62691 0.941895 7.48366 0.846449C7.34042 0.751003 7.17213 0.700073 7 0.700073C6.82787 0.700073 6.65958 0.751003 6.51634 0.846449C6.37309 0.941895 6.26128 1.07759 6.195 1.23645L4.9257 4.26395L1.67398 4.54559C1.50229 4.56002 1.33867 4.62482 1.20365 4.73186C1.06863 4.83891 0.968223 4.98344 0.915016 5.14732C0.861809 5.3112 0.858172 5.48715 0.904562 5.65309C0.950951 5.81903 1.0453 5.96759 1.17578 6.08012L3.64273 8.2359L2.90336 11.4373C2.86426 11.6048 2.87542 11.7802 2.93543 11.9414C2.99545 12.1026 3.10165 12.2426 3.24078 12.3438C3.3799 12.445 3.54577 12.5029 3.71764 12.5103C3.88951 12.5178 4.05976 12.4744 4.20711 12.3856L6.99617 10.6903L9.79125 12.3856C9.93859 12.4744 10.1088 12.5178 10.2807 12.5103C10.4526 12.5029 10.6185 12.445 10.7576 12.3438C10.8967 12.2426 11.0029 12.1026 11.0629 11.9414C11.1229 11.7802 11.1341 11.6048 11.095 11.4373L10.3562 8.23262L12.8226 6.08012C12.953 5.9672 13.0472 5.81822 13.0932 5.65193C13.1393 5.48563 13.1351 5.30944 13.0812 5.14551ZM12.2489 5.41895L9.7825 7.57145C9.66246 7.67587 9.57316 7.81104 9.52421 7.96242C9.47526 8.1138 9.46851 8.27566 9.50469 8.43059L10.2457 11.6375L7.45281 9.94215C7.31655 9.85917 7.16009 9.81528 7.00055 9.81528C6.84101 9.81528 6.68454 9.85917 6.54828 9.94215L3.75922 11.6375L4.49531 8.43278C4.53149 8.27785 4.52474 8.11598 4.47579 7.9646C4.42684 7.81322 4.33754 7.67805 4.2175 7.57364L1.75 5.42223C1.7498 5.4206 1.7498 5.41894 1.75 5.41731L5.00063 5.13621C5.15933 5.12223 5.3112 5.06517 5.43986 4.97121C5.56852 4.87724 5.66908 4.74993 5.7307 4.60301L7 1.57934L8.26875 4.60301C8.33037 4.74993 8.43093 4.87724 8.55959 4.97121C8.68825 5.06517 8.84012 5.12223 8.99883 5.13621L12.25 5.41731C12.25 5.41731 12.25 5.42059 12.25 5.42114L12.2489 5.41895Z" fill="#FFCE20"/>
</svg>
