<svg width="26" height="70" viewBox="0 0 26 70" fill="none" xmlns="http://www.w3.org/2000/svg">
<path opacity="0.7" fill-rule="evenodd" clip-rule="evenodd" d="M11.6764 1.72499C5.74472 5.34332 0.499073 14.0526 0.88549 19.6107C1.20425 23.8058 3.63457 25.8384 12.3025 29.1171C18.1718 31.3427 19.8563 32.4235 19.3909 33.7983C19.2681 34.2793 17.3304 36.7409 15.1671 39.3272C10.9696 44.3106 9.5232 46.7312 9.22929 49.3207C8.80785 52.8517 10.7475 54.9294 15.9137 56.4479C21.4301 58.0679 22.4081 59.3982 21.9748 64.7658C21.7941 66.5871 21.743 68.4306 21.814 68.8372C22.1881 70.9806 24.967 67.16 25.5999 63.6327C26.524 58.2201 24.286 55.1532 17.8391 53.1953C16.0386 52.635 14.1638 51.8803 13.6414 51.5118C12.7694 50.7895 12.7625 50.75 13.33 48.7758C13.7354 47.2895 15.0226 45.397 18.0736 41.6958C22.627 36.1499 23.3439 34.776 22.9484 32.5102C22.433 29.5576 20.452 28.1949 12.739 25.4166C4.89348 22.5761 3.25031 20.7802 4.41959 16.2847C5.62821 11.7824 9.41024 6.57866 13.6704 3.62631C15.5908 2.24977 15.8929 1.6113 14.8527 0.877641C14.0945 0.342885 13.8181 0.43185 11.6803 1.7243L11.6764 1.72499Z" fill="#0056D2"/>
</svg>
