<svg width="40" height="30" viewBox="0 0 40 30" fill="none" xmlns="http://www.w3.org/2000/svg">
<rect width="40" height="30" rx="10" fill="#E4F0FF"/>
<path d="M18.7188 9.21875L13.2188 14.4688C13.0729 14.6146 13 14.7917 13 15C13 15.2083 13.0729 15.3854 13.2188 15.5312L18.7188 20.7812C19.0938 21.0729 19.4479 21.0729 19.7812 20.7812C20.0729 20.4062 20.0729 20.0521 19.7812 19.7188L15.625 15.75H26.25C26.7083 15.7083 26.9583 15.4583 27 15C26.9583 14.5417 26.7083 14.2917 26.25 14.25H15.625L19.7812 10.2812C20.0729 9.94792 20.0729 9.59375 19.7812 9.21875C19.4479 8.92708 19.0938 8.92708 18.7188 9.21875Z" fill="#303188"/>
</svg>
