<svg width="40" height="30" viewBox="0 0 40 30" fill="none" xmlns="http://www.w3.org/2000/svg">
<rect width="40" height="30" rx="10" fill="#303188"/>
<path d="M21.2812 9.21875L26.7812 14.4688C26.9271 14.6146 27 14.7917 27 15C27 15.2083 26.9271 15.3854 26.7812 15.5312L21.2812 20.7812C20.9062 21.0729 20.5521 21.0729 20.2188 20.7812C19.9271 20.4062 19.9271 20.0521 20.2188 19.7188L24.375 15.75H13.75C13.2917 15.7083 13.0417 15.4583 13 15C13.0417 14.5417 13.2917 14.2917 13.75 14.25H24.375L20.2188 10.2812C19.9271 9.94792 19.9271 9.59375 20.2188 9.21875C20.5521 8.92708 20.9062 8.92708 21.2812 9.21875Z" fill="white"/>
</svg>
