<svg width="1010" height="126" viewBox="0 0 1010 126" fill="none" xmlns="http://www.w3.org/2000/svg">
<path d="M0.226497 120L6 125.774L11.7735 120L6 114.226L0.226497 120ZM1009.77 6L1004 0.226497L998.227 6L1004 11.7735L1009.77 6ZM363.693 21.146L364.562 21.6411L363.693 21.146ZM315.988 104.854L315.12 104.359L315.988 104.854ZM6 121H289.924V119H6V121ZM316.857 105.349L364.562 21.6411L362.824 20.6509L315.12 104.359L316.857 105.349ZM389.758 7H1004V5H389.758V7ZM364.562 21.6411C369.721 12.5891 379.339 7 389.758 7V5C378.62 5 368.339 10.9745 362.824 20.6509L364.562 21.6411ZM289.924 121C301.061 121 311.343 115.025 316.857 105.349L315.12 104.359C309.961 113.411 300.343 119 289.924 119V121Z" fill="#E0E0E0"/>
</svg>
